<svg id="Calque_1" data-name="Calque 1" xmlns="http://www.w3.org/2000/svg" viewBox="0 0 192.85 209.53"><defs><style>.cls-1{fill:#008d36;stroke:#350d1a;stroke-miterlimit:10;}.cls-2{opacity:0.97;}.cls-10,.cls-11,.cls-12,.cls-3{fill:#350d1a;}.cls-4{fill:none;}.cls-5{fill:#1d1d1b;}.cls-6{fill:#08672f;}.cls-7{fill:#d01317;}.cls-8{fill:#fff;}.cls-9{font-size:35px;font-family:CooperBlack, Cooper Black;}.cls-13,.cls-9{fill:#e30613;}.cls-10,.cls-11,.cls-12{font-size:20px;}.cls-11{letter-spacing:-0.02em;}.cls-12{letter-spacing:-0.01em;}</style></defs><path class="cls-1" d="M218.91,120.07" transform="translate(-51.41 -34.31)"/><g class="cls-2"><path class="cls-3" d="M154.81,148.92a65,65,0,0,0-19.26-4.18,57.55,57.55,0,0,0-9.66.49,56.64,56.64,0,0,0-9.31,2.34,51.48,51.48,0,0,0-8.71,4,64,64,0,0,0-8,5.29,74.89,74.89,0,0,0-7.18,6.38c-1.13,1.14-2.24,2.3-3.28,3.51s-2.1,2.48-2.92,3.64L87,168.1l2.26,11,2.15,11-5.53-.7c.83-1.61,1.65-3,2.54-4.36s1.84-2.72,2.83-4a66.78,66.78,0,0,1,6.52-7.35,47.36,47.36,0,0,1,16.53-10.7,38.85,38.85,0,0,1,9.65-2.22,40,40,0,0,1,9.79.37,48.45,48.45,0,0,1,17.71,7.06,56.79,56.79,0,0,0-18-4.51,43.81,43.81,0,0,0-9,.54,39.78,39.78,0,0,0-8.51,2.7,46.33,46.33,0,0,0-14.38,10.49,59.71,59.71,0,0,0-5.72,7c-.86,1.24-1.7,2.49-2.49,3.77s-1.56,2.63-2.14,3.83l-3.79,7.77-1.74-8.47-2.26-11-2.16-11L80.94,168l.73-1c1.13-1.55,2.21-2.81,3.38-4.13s2.36-2.54,3.6-3.75a73.27,73.27,0,0,1,8-6.62,66.07,66.07,0,0,1,8.9-5.39,56.41,56.41,0,0,1,9.73-3.72,49.44,49.44,0,0,1,10.24-1.76,52.18,52.18,0,0,1,10.31.44A54.74,54.74,0,0,1,154.81,148.92Z" transform="translate(-51.41 -34.31)"/></g><g class="cls-2"><path class="cls-3" d="M73.37,143.19a16.47,16.47,0,0,1-8.34-.72,19.66,19.66,0,0,1-7.37-4.71,22.08,22.08,0,0,1,1.57-32.26,19.41,19.41,0,0,1,7.82-3.93,16.45,16.45,0,0,1,8.37.16,21.91,21.91,0,0,0-12.93,7.18,21,21,0,0,0-1.26,25.8A22,22,0,0,0,73.37,143.19Z" transform="translate(-51.41 -34.31)"/></g><g class="cls-2"><path class="cls-3" d="M73.16,105.56a15.07,15.07,0,0,1-.5-6.1,19.14,19.14,0,0,1,1.7-6.07A17.24,17.24,0,0,1,78.23,88a14.61,14.61,0,0,1,1.36-1.11,15,15,0,0,1,1.5-.94c.5-.26,1-.51,1.52-.75l1.61-.59A16.75,16.75,0,0,1,97.35,86a14.43,14.43,0,0,1,7.22,10,21.61,21.61,0,0,0-9.13-5.67,16.53,16.53,0,0,0-9.43,0l-1.12.38c-.36.16-.71.34-1.07.49s-.66.35-1,.51l-.94.63a19,19,0,0,0-3.49,3.45,28.79,28.79,0,0,0-2.92,4.48A37.37,37.37,0,0,0,73.16,105.56Z" transform="translate(-51.41 -34.31)"/></g><g class="cls-2"><path class="cls-4" d="M73.7,105.43" transform="translate(-51.41 -34.31)"/></g><g class="cls-2"><path class="cls-3" d="M105,97.72a11.83,11.83,0,0,1-1.58-6.08A14.5,14.5,0,0,1,105,85.22a16.28,16.28,0,0,1,10.51-8.34,16,16,0,0,1,13.25,2.41,14,14,0,0,1,4.33,5,11.51,11.51,0,0,1,1.24,6.16,16.7,16.7,0,0,0-8-7.13,15,15,0,0,0-9.39-.67,15.41,15.41,0,0,0-8,5A17.52,17.52,0,0,0,105,97.72Z" transform="translate(-51.41 -34.31)"/></g><g class="cls-2"><path class="cls-3" d="M130.69,92a12.4,12.4,0,0,1,3.2-5.72,14.59,14.59,0,0,1,5.89-3.65,15.75,15.75,0,0,1,7.13-.62A17,17,0,0,1,161.24,96.3c.69,4.63-.8,9.5-4,12.4a19.1,19.1,0,0,0-.59-11.3,16,16,0,0,0-6.24-7.84,14.84,14.84,0,0,0-9.58-2.38A17.36,17.36,0,0,0,130.69,92Z" transform="translate(-51.41 -34.31)"/></g><g class="cls-2"><path class="cls-3" d="M158.52,97.37a16.09,16.09,0,0,1,8.77,5.06,20.63,20.63,0,0,1,4.87,9.22,20.89,20.89,0,0,1-.14,10.42,16.49,16.49,0,0,1-5.38,8.55,58.9,58.9,0,0,0,.71-9.22,38.32,38.32,0,0,0-1-8.35,36.05,36.05,0,0,0-2.87-7.9A51,51,0,0,0,158.52,97.37Z" transform="translate(-51.41 -34.31)"/></g><g class="cls-2"><path class="cls-3" d="M74.28,159.43a28.29,28.29,0,0,1,5.06,1.88,21.29,21.29,0,0,1,4.68,3,10.84,10.84,0,0,1,2,2.31A7,7,0,0,1,87.14,170a6.7,6.7,0,0,1-.88,3.63,8.41,8.41,0,0,1-1,1.4,13.25,13.25,0,0,1-1.06,1.19,14.51,14.51,0,0,1-5.39,3.24,17.38,17.38,0,0,1-6.08,1,20.24,20.24,0,0,1-6-1,22.22,22.22,0,0,1-5.48-2.66,21.47,21.47,0,0,1-4.45-4.17,19.06,19.06,0,0,1-1.69-2.48,16.64,16.64,0,0,1-1.38-2.65,20.87,20.87,0,0,1-1.61-5.78c-.14-1-.12-2-.17-3a29.75,29.75,0,0,1,.36-3,16.75,16.75,0,0,1,6-10,14.82,14.82,0,0,1,10.51-3,16.27,16.27,0,0,0-8.48,5.17A14.86,14.86,0,0,0,57,156.34a16.6,16.6,0,0,0,1.91,8.73,14.45,14.45,0,0,0,1.15,2,14.68,14.68,0,0,0,1.35,1.81,15.55,15.55,0,0,0,3.25,3A17,17,0,0,0,73,174.73a12.27,12.27,0,0,0,8.16-2,12.85,12.85,0,0,0,1.45-1.35,2.93,2.93,0,0,0,.63-1.35,5.38,5.38,0,0,0-1.34-3.65,22.54,22.54,0,0,0-3.44-3.64C77.13,161.55,75.73,160.48,74.28,159.43Z" transform="translate(-51.41 -34.31)"/></g><g class="cls-2"><path class="cls-3" d="M98,109.3a27.58,27.58,0,0,1,10.17,5,34.15,34.15,0,0,1,7.89,8.32,28,28,0,0,1,4.39,10.78,20.4,20.4,0,0,1-1.1,11.41,68,68,0,0,0-3.42-10.08,59.25,59.25,0,0,0-4.87-8.79,100.8,100.8,0,0,0-6.13-8.23Z" transform="translate(-51.41 -34.31)"/></g><g class="cls-2"><path class="cls-3" d="M72.74,124.93A31.2,31.2,0,0,1,84,126.41a34,34,0,0,1,10.34,5.22,25.81,25.81,0,0,1,4.35,4.21,17.77,17.77,0,0,1,3,5.46,13.8,13.8,0,0,1,.63,6.19A12.71,12.71,0,0,1,100.2,153a27.44,27.44,0,0,0-.77-5.34,16,16,0,0,0-2-4.38,27.36,27.36,0,0,0-6.7-6.85,98.23,98.23,0,0,0-8.62-5.7C79.08,128.86,76,127.05,72.74,124.93Z" transform="translate(-51.41 -34.31)"/></g><g class="cls-2"><path class="cls-3" d="M147.59,106.49a69.45,69.45,0,0,1-2.48,9.6c-1,3-2.06,6-3.11,8.94s-2.09,5.8-2.9,8.68a25.06,25.06,0,0,0-.87,4.32,9.31,9.31,0,0,0,.54,4.59,7.15,7.15,0,0,1-3.45-4.11,15.43,15.43,0,0,1-.91-5.37,30.2,30.2,0,0,1,2-10.14,42.55,42.55,0,0,1,4.52-9A32.88,32.88,0,0,1,147.59,106.49Z" transform="translate(-51.41 -34.31)"/></g><path class="cls-3" d="M187.41,81.59a15.91,15.91,0,0,0-.61,1.54c-3.25,9.87-27.93,85.13-28.18,97.69-.08,4.53,1.64,6.35,3.76,7.23,5.67,2.36,9.05-.17,10.94-9.61l18-84.76c1-5,1.26-7.5,1.13-9.77C191.65,71,188.44,79.36,187.41,81.59Z" transform="translate(-51.41 -34.31)"/><path class="cls-5" d="M187.41,81.59c-.22.58-.47,1.16-.67,1.75l-.58,1.78L185,88.67l-2.31,7.13-4.55,14.27q-4.51,14.28-8.83,28.62c-2.84,9.57-5.63,19.16-8.06,28.84-.3,1.21-.57,2.43-.85,3.64s-.58,2.43-.79,3.66a30.79,30.79,0,0,0-.84,7.38,8.16,8.16,0,0,0,1,3.53,5.42,5.42,0,0,0,2.81,2.26,8.91,8.91,0,0,0,3.58.75,4.88,4.88,0,0,0,3.28-1.42c1.76-1.73,2.58-4.2,3.23-6.57s1.07-4.87,1.61-7.31l3.12-14.65,6.24-29.29,6.25-29.29,1.55-7.33a46.31,46.31,0,0,0,1-7.41,33.16,33.16,0,0,0-.19-3.73,17.48,17.48,0,0,0-.69-3.67,3.12,3.12,0,0,0-.41-.84.72.72,0,0,0-.8-.32,3.11,3.11,0,0,0-1.28,1.31A29.87,29.87,0,0,0,187.41,81.59Zm0,0a29.8,29.8,0,0,1,1.64-3.36,3,3,0,0,1,1.29-1.32.71.71,0,0,1,.81.33,3.24,3.24,0,0,1,.42.83,17.73,17.73,0,0,1,.69,3.67,33.47,33.47,0,0,1,.2,3.74,46.41,46.41,0,0,1-1,7.42l-1.53,7.33-6.18,29.3-6.18,29.31-3.1,14.65c-.53,2.44-1,4.89-1.59,7.33s-1.46,4.88-3.29,6.69a5.1,5.1,0,0,1-3.44,1.48,9.14,9.14,0,0,1-3.68-.78,5.64,5.64,0,0,1-2.91-2.36,8.24,8.24,0,0,1-1-3.62,20.47,20.47,0,0,1,.21-3.75,16.21,16.21,0,0,1,.3-1.85l.35-1.84c.21-1.24.51-2.45.8-3.66s.55-2.44.86-3.65c2.45-9.68,5.26-19.26,8.12-28.83s5.86-19.09,8.89-28.6l4.58-14.26L185,88.67l1.17-3.56.58-1.77C186.94,82.75,187.18,82.17,187.41,81.59Z" transform="translate(-51.41 -34.31)"/><path class="cls-6" d="M190.6,82.69C190,76.92,187.05,53.77,177,47s-30.47.83-35.45,2.86c-.27.1-.37.61-.13.64,2.16.28,5.88.54,10.19,1.25l2.21-3.13L152.61,52c1.75.32,3.58.7,5.44,1.19l4.22-4.86L160.86,54c1.29.42,2.58.89,3.84,1.44l.86-1.11,3.49-4.52-1.73,5.62L167,56.49a31.94,31.94,0,0,1,3,1.73l3.87-5.33-2.14,6.55c.88.67,1.74,1.39,2.57,2.15l4.3-6-2.5,7.27-.11.32c1,1,1.93,2,2.84,3.11L181.13,64l-1.31,3.52c1,1.21,1.9,2.42,2.77,3.63l3.06-3.39-2,4.85c3,4.4,5.31,8.44,6.51,10.51C190.28,83.33,190.63,83,190.6,82.69Z" transform="translate(-51.41 -34.31)"/><path class="cls-5" d="M190.6,82.69a99.81,99.81,0,0,0-4.46-21.22,40.39,40.39,0,0,0-4.69-9.75,18.2,18.2,0,0,0-3.63-4A14.39,14.39,0,0,0,173,45.28a28.67,28.67,0,0,0-10.76-.73,63.22,63.22,0,0,0-10.64,2q-2.62.72-5.19,1.59c-.86.29-1.71.59-2.56.91l-1.27.48-.63.25c-.19.1-.47.14-.55.28s-.15.41.06.37l.67.08,1.35.14,2.7.28q2.7.3,5.39.72l-.1,0,2.2-3.14.46-.66-.27.76L152.72,52l-.09-.15L158.08,53l-.12,0,4.22-4.86.33-.38-.12.49L161,54l-.08-.14,3.86,1.45-.13,0L169,49.73l.34-.43-.17.52-2.06,6.69-.05-.1,3,1.74-.12,0,3.88-5.32.29-.41-.15.48-2.15,6.54,0-.08,2.58,2.16h-.1l4.3-6,.23-.32-.13.37L176,63.23l0,0,2.85,3.11h-.07L181.1,64l.13-.13-.06.17-1.32,3.52v0l2.77,3.64h0l3.07-3.39.09-.09-.06.12-2,4.85h0c1.25,1.8,2.43,3.65,3.58,5.52L188.9,81l.82,1.42.41.71c.06.16.26.1.33,0A.53.53,0,0,0,190.6,82.69Zm0,0a.53.53,0,0,1-.14.38c-.07.11-.27.17-.33,0l-.41-.72L188.89,81l-1.69-2.82q-1.71-2.8-3.59-5.52h0l2-4.86,0,0-3.06,3.4,0,0,0,0-2.78-3.62v0l1.3-3.52.07,0-2.31,2.33,0,0,0,0L176,63.25l0,0v0l2.59-7.6.1.06-4.28,6,0,.06-.06,0-2.57-2.14,0,0v0l2.14-6.55.13.07-3.86,5.33-.05.06-.07,0-3-1.72-.07,0,0-.07,2-6.69.18.09-4.34,5.62,0,.07-.08,0-3.84-1.43-.1,0,0-.1,1.41-5.69.21.11-4.23,4.86,0,.06-.08,0-5.43-1.19-.13,0,0-.12,1.18-3.31.2.1-2.21,3.13,0,0h-.06q-2.69-.44-5.38-.73l-2.7-.29-1.35-.14-.68-.08a.34.34,0,0,1-.21-.08.32.32,0,0,1-.09-.21.64.64,0,0,1,.12-.38.57.57,0,0,1,.32-.22l.31-.12.64-.25,1.27-.48c.85-.31,1.7-.62,2.56-.9q2.58-.87,5.21-1.58a62.35,62.35,0,0,1,10.67-2,28.69,28.69,0,0,1,10.8.76,14.58,14.58,0,0,1,4.82,2.46,18.86,18.86,0,0,1,3.64,4,40.71,40.71,0,0,1,4.67,9.78A100,100,0,0,1,190.6,82.69Z" transform="translate(-51.41 -34.31)"/><path class="cls-6" d="M192,82.69c-3-4.5-15.43-22.22-27.4-22.11S137.4,78.69,133.74,83.23c-.19.24-.06.73.17.61,2.07-1,5.54-2.9,9.75-4.77l.66-3.89.34,3.45c1.72-.74,3.54-1.47,5.42-2.11L151.85,70,153,75.61c1.35-.39,2.72-.73,4.09-1l.3-1.41,1.25-5.78.82,5.69.15,1.1a33.61,33.61,0,0,1,3.45-.27l1.25-6.67.83,6.71c1.07.06,2.16.17,3.24.33l1.36-7.45.82,7.52,0,.33c1.31.27,2.61.6,3.89,1l1.1-3.27.3,3.7c1.39.45,2.75.95,4.05,1.46L181.23,73l.22,5.22c4.61,2,8.38,4,10.34,5.09C192,83.41,192.19,82.94,192,82.69Z" transform="translate(-51.41 -34.31)"/><path class="cls-5" d="M192,82.69a88.22,88.22,0,0,0-6.58-8.7,60.88,60.88,0,0,0-7.74-7.66,26.55,26.55,0,0,0-9.47-5.23,13.08,13.08,0,0,0-5.39-.32,19.74,19.74,0,0,0-5.19,1.59,43.54,43.54,0,0,0-9.13,5.89,87.51,87.51,0,0,0-8,7.41q-1.89,2-3.69,4l-1.77,2.07-.87,1c-.13.17-.3.36-.41.52s0,.45.05.44c3.2-1.59,6.45-3.33,9.77-4.8l-.06.08.67-3.89.13-.81.08.82.35,3.45-.16-.1L150,76.4l-.07.08L151.73,70l.14-.49.1.5,1.11,5.57-.14-.08,4.1-1-.08.08,1.56-7.19.11-.54.08.55,1,6.78-.1-.07,3.46-.26-.09.07,1.26-6.67.1-.49.06.49.82,6.71-.07-.06,3.25.34-.08,0,1.37-7.45.07-.38.05.38.84,7.85,0,0,3.89,1-.05,0,1.11-3.27,0-.17,0,.18.29,3.7,0,0,4,1.46,0,0L181.21,73l0-.13V73l.22,5.22h0q2.83,1.2,5.59,2.6c.92.46,1.83.93,2.74,1.42l1.35.73.68.36c.14,0,.22-.14.25-.25A.48.48,0,0,0,192,82.69Zm0,0a.48.48,0,0,1,0,.37c0,.11-.11.27-.25.25s-.45-.24-.68-.36l-1.36-.73c-.91-.48-1.82-1-2.74-1.41-1.84-.92-3.7-1.78-5.6-2.58h0L181.21,73h0l-1.33,4.6v0h0l-4-1.46h0v0l-.31-3.71h.08l-1.1,3.27,0,0h0l-3.88-1h0v0l-.87-7.85h.11l-1.35,7.45v.06h-.06l-3.23-.33h-.06V74l-.84-6.71h.16L163.11,74V74H163l-3.44.27h-.09v-.08l-1-6.79h.19l-1.54,7.2,0,.06-.07,0-4.08,1-.11,0,0-.11-1.13-5.58H152l-1.77,6.49v.06l-.07,0-5.41,2.1-.15.06v-.15l-.34-3.45h.22l-.67,3.89v0l-.05,0c-3.35,1.47-6.51,3.17-9.84,4.79-.22,0-.27-.2-.3-.32a.68.68,0,0,1,.07-.39c.15-.21.29-.36.43-.54l.87-1,1.78-2.07c1.2-1.37,2.44-2.71,3.7-4a89.09,89.09,0,0,1,8-7.4,43.83,43.83,0,0,1,9.18-5.88,19.47,19.47,0,0,1,5.22-1.59,12.9,12.9,0,0,1,5.42.34,26.59,26.59,0,0,1,9.49,5.25A61,61,0,0,1,185.46,74,89.48,89.48,0,0,1,192,82.69Z" transform="translate(-51.41 -34.31)"/><path class="cls-6" d="M190.35,82.44c-4.47-2.36-22.8-11.25-33.84-5s-18.28,29.75-19.92,35.58c-.09.31.21.66.38.44,1.54-1.93,4-5.38,7.2-9.17l-.87-3.71,1.63,2.81c1.31-1.53,2.72-3.1,4.22-4.64l-.85-6.53,3.17,4.25c1.1-1,2.24-2,3.41-3l-.26-1.38-1.06-5.66L156.5,91l.56.87q1.51-1.09,3.09-2l-1.4-6.43,3.34,5.38c1-.5,2.07-1,3.13-1.38l-1.6-7.16,3.64,6.09.16.26c1.32-.44,2.65-.82,4-1.16l-.23-3.4,1.7,3.05c1.46-.33,2.9-.6,4.31-.83l-.53-4.67L178.85,84c5-.71,9.31-.84,11.52-1C190.61,83.08,190.6,82.57,190.35,82.44Z" transform="translate(-51.41 -34.31)"/><path class="cls-5" d="M190.35,82.44A76.26,76.26,0,0,0,180.09,78a50.54,50.54,0,0,0-10.86-2.52,22.27,22.27,0,0,0-11,1.2,21.53,21.53,0,0,0-8.41,7.12,58.28,58.28,0,0,0-5.75,9.56,106.57,106.57,0,0,0-4.35,10.28c-.64,1.76-1.25,3.52-1.81,5.29-.29.89-.56,1.78-.83,2.67l-.39,1.34a.41.41,0,0,0,.11.51c.05,0,.07,0,.16-.13l.22-.27c2.26-3,4.49-6,6.89-8.81l0,.09-.88-3.71L143,99.9l.38.66,1.64,2.81-.19,0,4.2-4.64h0l0,.11-.84-6.53-.05-.44.26.35,3.17,4.25h-.16l3.41-3,0,.11-1.31-7-.09-.48.26.41,3.49,5.38-.12,0,3.1-2,0,.09-1.39-6.43-.09-.43.23.37,3.33,5.39-.09,0,3.14-1.38,0,.07-1.59-7.16L163.5,80l.17.29,3.79,6.36-.05,0,4-1.16,0,0-.22-3.41v-.16l.08.14,1.69,3.06,0,0,4.31-.83,0,0-.52-4.66v-.12l0,.1,2.2,4.42h0q3.06-.42,6.14-.64c1-.08,2.06-.14,3.09-.19l1.54-.07.77,0C190.64,83,190.56,82.56,190.35,82.44Zm0,0c.21.12.29.53,0,.64l-.77,0-1.54.08c-1,0-2.06.12-3.09.19-2.05.16-4.1.37-6.14.66h0l-2.21-4.41h0l.53,4.67v0h0l-4.3.83h0l0,0-1.7-3,.07,0,.24,3.4v0h0l-4,1.17h0l0,0-3.8-6.35.1,0,1.6,7.15v0l0,0-3.12,1.38-.05,0,0,0-3.34-5.38.14,0,1.4,6.42,0,.06-.06,0-3.08,2L157,92l0-.07-3.51-5.37.18-.07,1.32,7,0,.06-.05,0-3.4,3-.09.08-.07-.09-3.18-4.25.21-.08.85,6.53v0l0,0h0L145,103.5l-.11.12-.08-.14-1.62-2.81.2-.08.87,3.71v0l0,.05c-2.41,2.84-4.64,5.83-6.91,8.78l-.22.28-.12.15a.26.26,0,0,1-.27,0,.57.57,0,0,1-.21-.73l.4-1.34c.27-.9.54-1.79.83-2.67.57-1.78,1.19-3.54,1.82-5.29A103.57,103.57,0,0,1,144,93.32a57.84,57.84,0,0,1,5.78-9.57c2.26-2.93,5-5.68,8.47-7.12a22.44,22.44,0,0,1,11-1.19A50,50,0,0,1,180.1,78,74.46,74.46,0,0,1,190.35,82.44Z" transform="translate(-51.41 -34.31)"/><path class="cls-6" d="M187.53,81.1C191.6,77.31,208.36,62.55,220,65s21.78,23.06,24.15,28.21c.13.27-.12.72-.32.56-1.75-1.38-4.64-3.93-8.24-6.59l.36-3.92-1.23,3.29c-1.47-1.06-3-2.13-4.72-3.14l0-6.66L227.4,82c-1.21-.64-2.45-1.24-3.72-1.78l.07-1.43.3-5.88-2.28,5.38-.44,1a31.59,31.59,0,0,0-3.29-.94l.53-6.75L216,78a31.45,31.45,0,0,0-3.24-.32l.62-7.53-2.76,7.16-.12.31c-1.35,0-2.7.07-4,.18l-.22-3.4L205,77.93c-1.47.16-2.92.37-4.32.61l-.1-4.73-1.58,5c-5,1-9.21,2.26-11.39,2.89C187.36,81.81,187.31,81.31,187.53,81.1Z" transform="translate(-51.41 -34.31)"/><path class="cls-5" d="M187.53,81.1A84.31,84.31,0,0,1,205,68.34a31,31,0,0,1,10.23-3.5,13.86,13.86,0,0,1,5.4.33,15.93,15.93,0,0,1,4.88,2.34,37.08,37.08,0,0,1,7.77,7.55,79.26,79.26,0,0,1,6.09,9q1.38,2.34,2.64,4.75c.41.8.83,1.61,1.22,2.42l.59,1.23.29.61a.85.85,0,0,1,.12.36.71.71,0,0,1-.12.37.38.38,0,0,1-.18.14c-.09,0-.21,0-.24-.07l-.26-.21-.53-.43-1.05-.86-2.09-1.73c-1.41-1.14-2.83-2.25-4.29-3.33l0,0v-.06l.36-3.92.21,0-1.22,3.29-.05.14-.12-.09-4.73-3.12-.06,0v-.07l0-6.66.23,0L227.5,82l-.05.1-.1,0-3.71-1.78-.07,0V80.2l.38-7.31.19,0-2.73,6.41,0,.07-.08,0-3.28-1-.07,0v-.07l.53-6.74.15,0L216.07,78l0,0H216l-3.23-.33h-.07v-.07l.63-7.53.11,0-2.89,7.47v0h0l-4,.17h0v0l-.22-3.4h.08L205,77.94v0h0l-4.31.6h0v0l-.09-4.73h0l-1.58,5h0c-2.06.4-4.1.87-6.13,1.39l-3,.83-1.5.44-.76.21c-.15,0-.19-.17-.19-.28A.52.52,0,0,1,187.53,81.1Zm0,0a.52.52,0,0,0-.14.36c0,.11,0,.3.19.28l.75-.22,1.51-.44,3-.83c2-.53,4.06-1,6.12-1.41h0l1.57-5,0-.13v.13l.11,4.74,0,0L205,77.9l0,0,1.25-3.54.07-.18v.19l.22,3.4,0,0,4-.19,0,0,2.87-7.47.14-.37,0,.39-.62,7.53-.06-.07,3.25.32-.08,0,2.56-6.37.19-.47,0,.51-.52,6.75-.07-.1,3.3.94-.11,0,2.7-6.41.22-.52,0,.56-.35,7.32-.07-.11,3.73,1.78-.15,0,2.54-5.21.23-.46v.52l0,6.66-.06-.1,4.73,3.15-.17,0,1.23-3.28.29-.78-.08.82-.37,3.92,0-.1c1.46,1.08,2.88,2.2,4.28,3.35L242,92.21l1.05.86.52.43.27.21c.07.07.07,0,.15,0a.47.47,0,0,0,.08-.26.57.57,0,0,0-.09-.28l-.29-.62-.59-1.22-1.22-2.42q-1.24-2.41-2.61-4.75a77.8,77.8,0,0,0-6.07-9,36.55,36.55,0,0,0-7.72-7.54,15.77,15.77,0,0,0-4.85-2.34,13.83,13.83,0,0,0-5.36-.34,31.23,31.23,0,0,0-10.22,3.46A84.51,84.51,0,0,0,187.53,81.1Z" transform="translate(-51.41 -34.31)"/><path class="cls-6" d="M189.21,80c5-1.37,25.16-6.24,34.23,2.14s9.86,32.7,9.91,38.7c0,.32-.38.6-.49.35-1-2.2-2.48-6.06-4.56-10.4l1.83-3.43-2.33,2.39c-.87-1.75-1.82-3.56-2.87-5.37l2.56-6.17-4.21,3.47q-1.2-1.84-2.53-3.59l.62-1.29,2.53-5.28-4.05,3.78-.77.73c-.8-.91-1.62-1.78-2.48-2.59l3.07-6L215,92.05c-.85-.7-1.74-1.36-2.67-2l3.45-6.63-5.15,5.17-.23.23c-1.16-.7-2.35-1.35-3.55-2L208,83.62l-2.46,2.62c-1.34-.62-2.67-1.19-4-1.7l1.75-4.43L200,84A113.47,113.47,0,0,0,189,80.66C188.79,80.6,188.94,80.11,189.21,80Z" transform="translate(-51.41 -34.31)"/><path class="cls-5" d="M189.21,80a80,80,0,0,1,10.84-2.17,52.94,52.94,0,0,1,11-.35,23.14,23.14,0,0,1,10.5,3.18c3.13,2,5.16,5.33,6.62,8.68A53.37,53.37,0,0,1,231.38,100a100.9,100.9,0,0,1,1.56,11c.15,1.84.29,3.68.37,5.52,0,.92.08,1.84.1,2.77l0,1.38c0,.12,0,.22,0,.36a.58.58,0,0,1-.19.35.3.3,0,0,1-.44,0,2.52,2.52,0,0,1-.16-.34c-1.45-3.39-2.85-6.8-4.45-10.12l0,0,0,0,1.83-3.42.18.13-2.33,2.39-.11.12-.08-.15-2.87-5.36,0,0,0-.06,2.56-6.17.18.14-4.21,3.47-.1.07-.07-.1-2.51-3.59,0-.05,0-.06,3.15-6.56.16.12-4.83,4.49-.07.06-.06-.06-2.47-2.59,0,0,0,0,3.07-6,.12.09L215,92.1l0,0-.05,0-2.66-2,0,0,0,0,3.46-6.63.08.07-5.38,5.39,0,0,0,0-3.55-2,0,0v0l1.13-3.26.06,0-2.46,2.61,0,0h0l-4-1.7h0v0l1.75-4.42,0,0L200,84h0q-2.88-1-5.81-1.9c-1-.29-2-.56-2.95-.83l-1.48-.39c-.25-.06-.5-.12-.74-.2S189,80.11,189.21,80Zm0,0c-.22.08-.41.42-.22.61s.49.13.74.2l1.48.39c1,.26,2,.53,2.95.81q2.94.85,5.82,1.9h0l3.32-3.84.08-.09-.05.11-1.74,4.43,0,0,4,1.69h0l2.46-2.62.12-.13-.06.16-1.12,3.27,0-.05,3.56,1.94h-.06l5.38-5.41.25-.26-.17.33-3.44,6.63,0-.08L215,92H215l4.67-4.54.33-.33-.21.42-3.06,6,0-.1L219.14,96H219l4.83-4.51.37-.35-.22.47-3.14,6.57v-.11l2.53,3.59-.17,0,4.21-3.48.37-.31-.18.44L225,104.46v-.11l2.86,5.38-.19,0,2.34-2.39.55-.57-.37.7-1.84,3.43v-.1c1.6,3.33,3,6.75,4.43,10.14.11.67.55.11.43-.33l0-1.38c0-.92,0-1.84-.1-2.76-.07-1.84-.2-3.68-.35-5.52A100.64,100.64,0,0,0,231.25,100a53.3,53.3,0,0,0-3.14-10.57c-1.45-3.34-3.46-6.62-6.57-8.66a23.13,23.13,0,0,0-10.46-3.19,52.86,52.86,0,0,0-11,.32A81.81,81.81,0,0,0,189.21,80Z" transform="translate(-51.41 -34.31)"/><path class="cls-6" d="M188.1,80.24c4.93.83,24.74,4.87,30.26,16.77s-1.5,35.44-3.36,41.19c-.1.31-.54.41-.56.13-.18-2.52-.31-6.85-.81-11.89l2.75-2.49-2.87,1.28c-.23-2-.51-4.18-.88-6.35l4.28-4.8L212,115.59c-.33-1.52-.7-3-1.14-4.52l1-1,4-4L210.93,108l-.94.36c-.42-1.21-.89-2.4-1.41-3.54l4.67-4.37-5.67,2.33c-.55-1-1.15-2.06-1.78-3L211,94.91l-6.3,2.72-.28.12c-.83-1.17-1.7-2.3-2.6-3.39l2.06-2.62-3.06,1.44c-1-1.17-2-2.28-3-3.33l3-3.47-4.22,2.23c-3.69-3.65-7.11-6.4-8.85-7.85C187.54,80.6,187.83,80.2,188.1,80.24Z" transform="translate(-51.41 -34.31)"/><path class="cls-5" d="M188.1,80.24a75.55,75.55,0,0,1,11,2.75,50.77,50.77,0,0,1,10.29,4.68,23.42,23.42,0,0,1,8.14,7.72,23.42,23.42,0,0,1,2.91,10.84,61.94,61.94,0,0,1-.54,11.3,107.81,107.81,0,0,1-2.1,11.12c-.45,1.84-.92,3.67-1.44,5.48-.26.91-.53,1.81-.81,2.72l-.42,1.35a.53.53,0,0,1-.25.32.34.34,0,0,1-.45,0c-.1-.19-.05-.27-.07-.4l0-.35c-.22-3.77-.4-7.54-.78-11.29v-.06l0,0,2.74-2.48.12.19-2.87,1.28-.14.07,0-.16-.89-6.35v-.06l0,0,4.29-4.78.12.19L212,115.69l-.11,0,0-.12-1.13-4.51V111l0,0,4.95-4.9.1.15L210,108.47l-.08,0,0-.08-1.4-3.53,0-.06.05,0,4.67-4.36.08.12-5.68,2.32,0,0,0,0-1.78-3,0-.05,0,0L211,94.87l.06.09-6.58,2.83,0,0,0,0-2.59-3.39,0,0,0,0,2.06-2.62.05,0-3.06,1.44h0v0l-3-3.33,0,0h0l3-3.48,0,0-4.22,2.23h0q-2.25-2.22-4.62-4.3c-.79-.69-1.6-1.37-2.4-2l-1.22-1-.6-.5C187.55,80.53,187.85,80.21,188.1,80.24Zm0,0c-.25,0-.55.29-.37.52l.61.5,1.21,1c.81.67,1.61,1.35,2.41,2,1.58,1.39,3.13,2.81,4.63,4.29h0l4.22-2.24.1,0-.07.08-3,3.48v0l3,3.32h0l3.06-1.45.13-.06-.09.12-2.05,2.63v0l2.6,3.38h0L211,94.86l.29-.12-.23.21-5.23,4.85v-.08l1.79,3.06-.09,0,5.67-2.33.38-.15-.3.28-4.66,4.37,0-.09,1.42,3.54-.12-.06,5.8-2.23.42-.16-.32.32-4.93,4.92,0-.1,1.15,4.51-.14-.08,4.91-1.51.4-.12-.28.31-4.27,4.8,0-.11.87,6.37-.16-.09,2.87-1.28.66-.3-.54.49-2.75,2.48,0-.09c.37,3.75.55,7.53.76,11.29a5.23,5.23,0,0,0,.05.65c.06.09.34,0,.37-.23l.43-1.35c.27-.9.55-1.8.8-2.71.53-1.81,1-3.64,1.46-5.47a109.71,109.71,0,0,0,2.12-11.1,61.7,61.7,0,0,0,.57-11.28,23.34,23.34,0,0,0-2.87-10.8,23.48,23.48,0,0,0-8.1-7.72A51.49,51.49,0,0,0,199.06,83,75.2,75.2,0,0,0,188.1,80.24Z" transform="translate(-51.41 -34.31)"/><path class="cls-6" d="M190.24,83.07c-.78-5.19-3.42-26.27,3.69-36.26s26.24-12.05,30.95-12.4c.25,0,.45.37.25.5-1.79,1.14-4.9,2.92-8.44,5.34l-2.58-1.76,1.74,2.34c-1.42,1-2.9,2.09-4.38,3.29l-4.69-2.39L209.26,46c-1,.9-2,1.84-3,2.84l-1-.59-4-2.41,2.73,4.09.52.79c-.76.88-1.49,1.79-2.17,2.74l-4.5-2.95,3.29,4.72c-.6.93-1.17,1.91-1.72,2.92l-5-3.32L198.22,60l.17.22c-.62,1.27-1.2,2.56-1.74,3.86l-2.49-1,1.91,2.47c-.57,1.43-1.09,2.87-1.56,4.27l-3.38-1.63L194,71.5c-1.62,5-2.66,9.46-3.23,11.73C190.66,83.48,190.28,83.35,190.24,83.07Z" transform="translate(-51.41 -34.31)"/><path class="cls-5" d="M190.24,83.07a94.77,94.77,0,0,1-.93-20.47,43.15,43.15,0,0,1,1.84-10.08,18.79,18.79,0,0,1,.91-2.4L192.6,49a12.37,12.37,0,0,1,.65-1.11l.67-1.09.82-1a14.13,14.13,0,0,1,1.78-1.85,30,30,0,0,1,8.77-5.26,58.22,58.22,0,0,1,9.84-2.92c1.68-.34,3.37-.65,5.06-.88.85-.13,1.7-.23,2.55-.33l1.28-.13.64-.05a.89.89,0,0,1,.36,0,.44.44,0,0,1,.26.29.29.29,0,0,1-.13.38l-.27.17-.55.34-1.09.68-2.19,1.34q-2.18,1.35-4.29,2.8l-.07,0-.06,0-2.58-1.76.15-.16L216,40.76l.07.09-.1.08-4.37,3.29-.07.05-.07,0-4.69-2.4.16-.16L209.35,46l.05.08-.07.06-3,2.83-.07.06-.06,0-5-3,.13-.14,3.25,4.88,0,0,0,.05-2.17,2.74-.05.06-.07,0-4.49-2.95.11-.11,3.28,4.72,0,0,0,0-1.72,2.92,0,.06-.06,0-5-3.32.08-.08,3.91,5.42,0,0,0,0-1.74,3.84v0h0l-2.49-1,0,0,1.91,2.47h0v0l-1.57,4.27v0l0,0-3.38-1.63,0,0L194,71.49h0q-1,3.06-1.83,6.17l-.81,3.11-.39,1.56-.19.78c0,.13-.11.29-.26.22A.34.34,0,0,1,190.24,83.07Zm0,0a.34.34,0,0,0,.25.28c.15.06.25-.09.26-.22l.19-.78.38-1.56.81-3.12q.83-3.11,1.8-6.17h0l-2.82-3.3-.07-.09.09,0,3.38,1.62,0,0L196,65.53v0l-1.91-2.47L194,63l.14,0,2.49,1-.06,0,1.74-3.86v.05l-3.93-5.4-.18-.26.26.17,5,3.31-.1,0,1.72-2.93v.08l-3.29-4.71-.23-.33.33.22,4.5,2.93-.11,0,2.18-2.75v.1l-3.26-4.86-.24-.37.37.23,5,3-.13,0,3-2.86,0,.14-2.48-4.27-.2-.35.35.18,4.7,2.39-.14,0,4.4-3.3,0,.17L214,38.55l-.4-.54.56.38,2.58,1.77h-.13c1.42-1,2.86-1.89,4.31-2.8L223.13,36l1.1-.67.54-.34.27-.17c.08,0,.08-.08.06-.16a.27.27,0,0,0-.15-.18,1.43,1.43,0,0,0-.28,0l-.63,0-1.28.13c-.85.09-1.7.19-2.54.31-1.7.23-3.38.54-5.05.87a57.63,57.63,0,0,0-9.82,2.89A29.66,29.66,0,0,0,196.59,44a14,14,0,0,0-1.77,1.84l-.82,1-.67,1.09c-.22.37-.47.72-.65,1.1l-.53,1.17a17.2,17.2,0,0,0-.92,2.38,43.55,43.55,0,0,0-1.87,10.06A95.42,95.42,0,0,0,190.24,83.07Z" transform="translate(-51.41 -34.31)"/><path class="cls-7" d="M194,164.72c-6,15.41-19.2,24.7-27.31,21.48s-11.28-19-5.3-34.39,14.33-12.6,22.45-9.39S199.93,149.31,194,164.72Z" transform="translate(-51.41 -34.31)"/><path class="cls-3" d="M194,164.72a44,44,0,0,1-8.71,14.06,33.73,33.73,0,0,1-6.37,5.36,18,18,0,0,1-7.81,2.88l-1.06.07c-.35,0-.71-.05-1.06-.08a8.37,8.37,0,0,1-2.09-.44,4.53,4.53,0,0,1-1-.42c-.31-.16-.65-.3-1-.49l-.86-.64-.43-.33-.37-.38a17.29,17.29,0,0,1-4.17-7.3,32.57,32.57,0,0,1-1.29-8.31,47.79,47.79,0,0,1,.63-8.37,48.93,48.93,0,0,1,2.27-8.08,32.47,32.47,0,0,1,3.84-7.48,12.07,12.07,0,0,1,6.84-4.88,11.64,11.64,0,0,1,4.24-.18,21.89,21.89,0,0,1,4.09.95,79.57,79.57,0,0,1,7.73,3.13,25.44,25.44,0,0,1,3.62,2.07,13.71,13.71,0,0,1,3,2.89,11.66,11.66,0,0,1,1.94,7.93A30.94,30.94,0,0,1,194,164.72Zm0,0a30.69,30.69,0,0,0,2-8,11.42,11.42,0,0,0-2-7.84,12.88,12.88,0,0,0-3-2.8,25,25,0,0,0-3.64-2,76.93,76.93,0,0,0-7.74-2.94,20.74,20.74,0,0,0-4-.84,11,11,0,0,0-4,.26,11.41,11.41,0,0,0-6.3,4.72,31.36,31.36,0,0,0-3.67,7.29,48.4,48.4,0,0,0-2.15,7.93,44.88,44.88,0,0,0-.69,8.18,31,31,0,0,0,1.18,8.08,16.81,16.81,0,0,0,3.82,7.07l.35.36.39.31.8.62a9.17,9.17,0,0,0,.87.48,4,4,0,0,0,.91.42,8.32,8.32,0,0,0,2,.45c.33,0,.67.09,1,.1l1,0a17.42,17.42,0,0,0,7.69-2.65,31.69,31.69,0,0,0,6.42-5.19A43.85,43.85,0,0,0,194,164.72Z" transform="translate(-51.41 -34.31)"/><path class="cls-7" d="M168.77,201.57l-17.84-7.07a5.08,5.08,0,0,1-1.68-8.51l11.13-9.86,13.85,5.48,1.54,14.84A5,5,0,0,1,168.77,201.57Z" transform="translate(-51.41 -34.31)"/><path class="cls-8" d="M195.35,157.23c-2,5.23-8.48,2.54-18.27-1.42-11.73-4.74-13-6.08-10.59-11.15,3.1-6.59,10.95-3.44,18.65-.49C194.28,147.68,197.38,152,195.35,157.23Z" transform="translate(-51.41 -34.31)"/><path class="cls-3" d="M195.35,157.23a4.81,4.81,0,0,1-1.37,2,4.25,4.25,0,0,1-2.24.9,13,13,0,0,1-4.82-.58c-3.14-.85-6.17-2-9.2-3.19a86,86,0,0,1-9-3.83,12.36,12.36,0,0,1-2.09-1.41,4.27,4.27,0,0,1-1.5-2.2,5,5,0,0,1,.18-2.65,13.44,13.44,0,0,1,1-2.31,6.63,6.63,0,0,1,3.91-3.26,10.8,10.8,0,0,1,5-.11,51.43,51.43,0,0,1,9.29,3.1,29,29,0,0,1,8.48,4.78,8.79,8.79,0,0,1,2.69,4A7.45,7.45,0,0,1,195.35,157.23Zm0,0a7.45,7.45,0,0,0,.29-4.75,8.74,8.74,0,0,0-2.72-3.92,18.83,18.83,0,0,0-4.08-2.57,41.76,41.76,0,0,0-4.48-1.85,53.15,53.15,0,0,0-9.25-2.73,9.9,9.9,0,0,0-4.6.16,5.7,5.7,0,0,0-3.32,2.85c-.71,1.34-1.45,2.92-1.15,4.26a3.35,3.35,0,0,0,1.19,1.75,12.15,12.15,0,0,0,1.92,1.34,91,91,0,0,0,8.76,4.11,90.46,90.46,0,0,0,9.05,3.51,12.72,12.72,0,0,0,4.77.64,4,4,0,0,0,2.22-.85A4.72,4.72,0,0,0,195.35,157.23Z" transform="translate(-51.41 -34.31)"/><polygon class="cls-7" points="116.32 130.7 122.83 134.33 142.51 98.61 136 94.98 116.32 130.7"/><path class="cls-3" d="M167.72,165l6.59,3.48-.21.06c3.15-6,6.4-12,9.61-18l9.77-17.9.2.68-6.5-3.65.64-.19c-3.28,5.9-6.54,11.78-9.91,17.67Zm0,0,9.51-17.9c3.18-6,6.48-12,9.77-18.05l.22-.42.42.23,6.52,3.6.44.25-.24.43L184.45,151c-3.36,5.91-6.67,11.85-10.08,17.74l-.08.14-.13-.08Z" transform="translate(-51.41 -34.31)"/><path class="cls-7" d="M199.9,128.26c-2.31,4.18-9,10.48-12.4,8.59s-2.19-11.24.12-15.43,5.87-3.48,9.26-1.59S202.21,124.07,199.9,128.26Z" transform="translate(-51.41 -34.31)"/><path class="cls-3" d="M199.9,128.26a24.38,24.38,0,0,1-4.15,5.24,14.72,14.72,0,0,1-5.58,3.75l-.42.12-.44.06a2.72,2.72,0,0,1-.9,0,3,3,0,0,1-1.68-.74,5.71,5.71,0,0,1-1.56-3.17,18.87,18.87,0,0,1,.17-6.83,16.61,16.61,0,0,1,2.48-6.39,5.56,5.56,0,0,1,2.86-2.08,6,6,0,0,1,3.47.16,13.53,13.53,0,0,1,3.07,1.46,10.5,10.5,0,0,1,2.6,2.14,4.36,4.36,0,0,1,1.09,3.11A7.13,7.13,0,0,1,199.9,128.26Zm0,0a7.3,7.3,0,0,0,1-3.17,4.24,4.24,0,0,0-1.17-3,9.65,9.65,0,0,0-2.65-2,13.38,13.38,0,0,0-3.05-1.24,5.38,5.38,0,0,0-3.13,0,4.88,4.88,0,0,0-2.36,1.93,12.07,12.07,0,0,0-1.37,2.9,21.41,21.41,0,0,0-.83,3.17,19.71,19.71,0,0,0-.3,6.49,5.12,5.12,0,0,0,1.17,2.83,3,3,0,0,0,2.85.57,14.29,14.29,0,0,0,5.62-3.37A22.06,22.06,0,0,0,199.9,128.26Z" transform="translate(-51.41 -34.31)"/><path class="cls-7" d="M173.91,174.11c-2,3.67-4.48,2.49-7.42.86s-5.23-3.1-3.21-6.78,7.94-9.4,10.87-7.77S175.93,170.43,173.91,174.11Z" transform="translate(-51.41 -34.31)"/><path class="cls-7" d="M173.91,174.11a5,5,0,0,1-1.92,2.11,3.59,3.59,0,0,1-2.84.1,18.08,18.08,0,0,1-2.66-1.18,18.8,18.8,0,0,1-2.52-1.47,4.08,4.08,0,0,1-1.75-2.49,5,5,0,0,1,.6-3,19.41,19.41,0,0,1,3.56-4.71,14.75,14.75,0,0,1,4.88-3.39,3.57,3.57,0,0,1,3.12.1,4,4,0,0,1,1.53,2.65,16,16,0,0,1-.2,5.82A19.92,19.92,0,0,1,173.91,174.11Zm0,0a17.76,17.76,0,0,0,1.67-5.51,15.68,15.68,0,0,0-.16-5.68,3.57,3.57,0,0,0-1.39-2.17,3,3,0,0,0-2.47.12,15.43,15.43,0,0,0-4.48,3.29,21.11,21.11,0,0,0-3.5,4.4,4.41,4.41,0,0,0-.69,2.52,3.54,3.54,0,0,0,1.38,2.2,18.49,18.49,0,0,0,2.37,1.59,15.9,15.9,0,0,0,2.56,1.32,3.43,3.43,0,0,0,2.77,0A5.06,5.06,0,0,0,173.91,174.11Z" transform="translate(-51.41 -34.31)"/><text x="-51.41" y="-34.31"/><text class="cls-9" transform="translate(24.02 190.5) rotate(-0.09)">C<tspan class="cls-10" x="25.19" y="0">A</tspan><tspan class="cls-11" x="41.72" y="0">S</tspan><tspan class="cls-10" x="54.29" y="0">A </tspan><tspan class="cls-12" x="75.83" y="0">F</tspan><tspan class="cls-10" x="88.84" y="0">OOD</tspan></text><path class="cls-13" d="M63.94,243.26c0-15,64.33-15.07,81.53-15,27.91.11,72.24,1.35,73.1,15.59" transform="translate(-51.41 -34.31)"/><path class="cls-3" d="M63.94,243.26a6.16,6.16,0,0,1,2.18-4.5,16.93,16.93,0,0,1,4.3-2.8,50.83,50.83,0,0,1,9.75-3.28,159.72,159.72,0,0,1,20.29-3.18c13.64-1.34,27.34-1.69,41-1.75s27.39.22,41,1.51a136.56,136.56,0,0,1,20.29,3.27,44.85,44.85,0,0,1,9.63,3.59,17,17,0,0,1,4.09,3.11,7.38,7.38,0,0,1,2,4.61,7.29,7.29,0,0,0-2.13-4.53,17,17,0,0,0-4.12-3,44.65,44.65,0,0,0-9.63-3.34,136.61,136.61,0,0,0-20.24-3c-13.61-1.13-27.29-1.3-41-1.28s-27.34.34-41,1.51a158.74,158.74,0,0,0-20.25,2.9,50.75,50.75,0,0,0-9.75,3,17.08,17.08,0,0,0-4.33,2.67A6.11,6.11,0,0,0,63.94,243.26Z" transform="translate(-51.41 -34.31)"/><path class="cls-1" d="M205.79,120.86" transform="translate(-51.41 -34.31)"/></svg>