<svg xmlns="http://www.w3.org/2000/svg" viewBox="0 0 383.09 381.15"><g id="Calque_2" data-name="Calque 2"><g id="Calque_1-2" data-name="Calque 1"><path d="M383.09,181.46v19.46c-.25,1.33-.55,2.65-.75,4-1.4,9.73-1.92,19.68-4.32,29.16-17.67,69.86-60.83,116.55-128.89,140-8.77,3-18,4.68-27.33,7V247.66c.79-.07,1.27-.15,1.76-.15,13,0,25.95-.07,38.93,0,2.51,0,3.69-.41,4.08-3.31,1.44-10.74,3.28-21.43,4.93-32.14,1-6.58,1.93-13.17,3-20.3h-53c0-11.32,0-22.16,0-33,0-2.12-.07-4.26.13-6.36,1.49-15.55,11.32-25,27-25.57,7.85-.3,15.72-.14,23.58-.22,1.44,0,2.89-.18,4.6-.29,0-15.24,0-30.08-.12-44.91,0-.89-1.64-2.38-2.68-2.54-15.8-2.45-31.67-3.85-47.69-3.14-35.18,1.58-61.56,26.51-64,61.58-1.14,16.52-.64,33.15-.88,49.73,0,1.46,0,2.93,0,4.95H113.09v55.43h48v132.9c-10.15-.81-29.54-6.31-44-12.42A191.34,191.34,0,0,1,3.53,155.16C23,54.87,118.33-12.9,218.92,2.07c38.55,5.74,72.46,21.56,101.2,47.86,33.68,30.82,54.05,68.91,60.74,114.17C381.71,169.87,382.35,175.67,383.09,181.46Z"/></g></g></svg>