<svg id="Calque_1" data-name="Calque 1" xmlns="http://www.w3.org/2000/svg" viewBox="0 0 855.12 675.15"><defs><style>.cls-1,.cls-5,.cls-6{fill:#d72828;}.cls-2,.cls-3{fill:#0c3148;}.cls-2{stroke:#0c3148;}.cls-2,.cls-4,.cls-5,.cls-6{stroke-miterlimit:10;}.cls-4{fill:#cd3333;stroke:#013333;}.cls-5{stroke:#cd3333;}.cls-5,.cls-6{stroke-width:3px;}.cls-6{stroke:#d72828;}</style></defs><path class="cls-1" d="M322.73,830.46c2.82-9,8.61-17,15.6-23.39a79.46,79.46,0,0,1,11.35-8.65,95,95,0,0,1,12.59-6.72,109.2,109.2,0,0,1,13.42-4.9,95.1,95.1,0,0,1,14.06-2.93,58.24,58.24,0,0,1,14.65-.24,27.28,27.28,0,0,1,7.58,2,14.12,14.12,0,0,1,3.71,2.36,9.73,9.73,0,0,1,2.79,4.09c.08.22.13.38.17.53l.14.47.25,1c.15.64.28,1.3.37,2a14.73,14.73,0,0,1,0,4.25,12.09,12.09,0,0,1-1.45,4.27,12.35,12.35,0,0,1-2.83,3.35,21.11,21.11,0,0,1-7,3.66,54.34,54.34,0,0,1-7.06,1.76c-9.34,1.69-18.58,2.19-27.56,4.21a56.29,56.29,0,0,0-13,4.27,26.94,26.94,0,0,0-10.31,8.36,24.08,24.08,0,0,0-4.26,12.42,36.94,36.94,0,0,0,.13,6.73,39.28,39.28,0,0,0,1.19,6.58,29,29,0,0,0,6.15,11.55,27.53,27.53,0,0,0,10.52,7.47,15,15,0,0,0,1.54.46l1.64.43c1.08.29,2.19.48,3.29.73s2.21.36,3.31.54l3.34.36a66.82,66.82,0,0,0,13.34-.3,82.29,82.29,0,0,0,25.57-7.6,135.18,135.18,0,0,0,23-14.19c14.53-10.9,27.73-23.75,40-37.49a479.89,479.89,0,0,0,34.29-43.59l.6.36a245.33,245.33,0,0,1-14,24.25q-7.62,11.76-16.36,22.79c-11.69,14.64-24.73,28.45-40.05,39.71a135.22,135.22,0,0,1-11.91,7.85,118.9,118.9,0,0,1-12.76,6.55A85.23,85.23,0,0,1,391,882.93a65.36,65.36,0,0,1-14.46-.62l-3.56-.66c-1.17-.29-2.34-.54-3.5-.86s-2.31-.65-3.44-1l-1.7-.6c-.56-.2-1.12-.38-1.75-.64a31.12,31.12,0,0,1-11.74-8.85,32.8,32.8,0,0,1-6.48-13,41,41,0,0,1-.9-14.33,27.68,27.68,0,0,1,5-13.48,30.46,30.46,0,0,1,11.14-9A70.05,70.05,0,0,1,373,815.08c2.27-.6,4.56-1.11,6.85-1.59s4.57-1,6.86-1.4c4.56-.89,9.12-1.78,13.5-2.93a49.24,49.24,0,0,0,6.32-2.08,17.08,17.08,0,0,0,5.14-3.12,6.51,6.51,0,0,0,2.14-4.37,10.85,10.85,0,0,0-.17-2.69c-.08-.47-.2-.95-.32-1.42l-.22-.73-.12-.36a1.63,1.63,0,0,0-.11-.29,3.84,3.84,0,0,0-1.18-1.53,9.44,9.44,0,0,0-2.21-1.27,22.42,22.42,0,0,0-5.88-1.42,58.91,58.91,0,0,0-13.13.1,94.4,94.4,0,0,0-13.24,2.5,103.09,103.09,0,0,0-12.9,4.16,94.58,94.58,0,0,0-23.63,13.22,60,60,0,0,0-17.33,20.86Z" transform="translate(-144.2 -207.92)"/><path class="cls-2" d="M313,450.09h58.69L506.19,758,640.12,450.09h52.29v373.5H623V509.85L511,768.1l24,55.49H459.77L321,506.65" transform="translate(-144.2 -207.92)"/><path class="cls-2" d="M791.79,673.66c65.1,0,97.11-42.15,146.73-42.15,36.29,0,60.3,24,60.3,60.82,0,74.71-77.91,136.6-172.88,136.6C716,828.93,627.45,743,627.45,636.84c0-112.05,80-192.09,192.08-192.09,52.3,0,108.32,19.21,140.34,48.56V594.69h-5.34c-15.47-83.24-67.23-141.93-124.32-141.93-55,0-111,64-124.33,141.93C713.89,644.31,745.9,673.66,791.79,673.66Zm-89.64-36.82c0,99.78,61.89,175,144.06,175,81.64,0,144.6-52.3,144.6-119.53,0-32-20.81-52.82-53.35-52.82-44.29,0-82.71,42.15-143.54,42.15-40,0-73.1-18.67-91.77-51.22Z" transform="translate(-144.2 -207.92)"/><path class="cls-1" d="M312.74,445.66c30-8.82,63.21-30,64.95-73.9,1.66-41.6-1.42-53.17,5.24-65.36,8.62-15.79,18.26-17.06,18.26-17.06l36.57-15.54s-40.33,6.81-48.32,8.86c-4.38,1.12-14.94-26.87-37.75-20s-17.8,30.2-18.1,48.64c-.24,14.7-16,25.38-21,31" transform="translate(-144.2 -207.92)"/><path class="cls-3" d="M312.74,445.66a123.78,123.78,0,0,0,22.51-9.88,88.9,88.9,0,0,0,19.42-14.66,70.26,70.26,0,0,0,13.86-19.62,69,69,0,0,0,4.13-11.25,80.12,80.12,0,0,0,2.15-11.79l.28-3,.14-3c.08-2,.11-4.09.14-6.13q.11-6.15.1-12.31c0-8.21-.19-16.38-.16-24.71a91.54,91.54,0,0,1,.82-12.76A40.48,40.48,0,0,1,377.7,310a35,35,0,0,1,2.8-6.15,49.48,49.48,0,0,1,7.8-10.7,34.24,34.24,0,0,1,5.33-4.41,24.64,24.64,0,0,1,3.16-1.75,18.11,18.11,0,0,1,1.74-.72c.32-.1.61-.21,1-.3l.52-.13a7,7,0,0,1,.7-.14l-.95.26L418,278l18.23-7.9,2.22,7.6L415,282l-11.65,2.2c-3.86.75-7.79,1.51-11.49,2.36l-1.34.32a5.62,5.62,0,0,1-.68.13,4.69,4.69,0,0,1-.9,0,6.1,6.1,0,0,1-1.48-.24,7,7,0,0,1-1.75-.84,10.68,10.68,0,0,1-1.82-1.49c-.46-.45-.86-.88-1.23-1.3-1.46-1.66-2.66-3.19-3.9-4.67a51.94,51.94,0,0,0-7.71-7.76,21.49,21.49,0,0,0-8.79-4.31,18.79,18.79,0,0,0-9.51.64,27.66,27.66,0,0,0-4.66,1.94,19.14,19.14,0,0,0-3.85,2.81,18.21,18.21,0,0,0-4.81,8.19,42,42,0,0,0-1.57,10.6c-.17,3.74-.06,7.62.05,11.58.05,2,.1,4,.12,6,0,1,0,2.05,0,3.08,0,.56-.06,1.19-.09,1.78s-.13,1.2-.23,1.78a29,29,0,0,1-5.68,12.37,45.73,45.73,0,0,1-9.17,8.68c-1.62,1.25-3.4,2.28-5.09,3.38l-2.61,1.53c-.88.5-1.75,1-2.63,1.54,1.92-3.7,4.59-6.8,6.89-10a77,77,0,0,0,6.22-9.4,26,26,0,0,0,3.28-9.47l.12-1.17,0-1.19c0-.95,0-1.9,0-2.87,0-1.92-.08-3.88-.13-5.86-.11-4-.25-8-.07-12.21a50.68,50.68,0,0,1,2-12.86,31.33,31.33,0,0,1,2.76-6.39,25.39,25.39,0,0,1,4.45-5.63,28.65,28.65,0,0,1,5.74-4.18,37.15,37.15,0,0,1,6.3-2.62,27.39,27.39,0,0,1,14-.79,30.28,30.28,0,0,1,12.39,6.06,60.35,60.35,0,0,1,9,9.13c1.3,1.56,2.54,3.16,3.7,4.49.28.32.56.62.8.86a4.7,4.7,0,0,0,.46.42,1.46,1.46,0,0,0-.43-.18,2.53,2.53,0,0,0-.75-.12,3.21,3.21,0,0,0-.52,0c-.16,0-.5.11-.32.07l1.56-.36c4-.88,7.91-1.56,11.85-2.28l11.75-2.05,23.5-3.91,34-5.67-31.8,13.26L421,285.11l-18.36,7.59-.95.26c.13,0,0,0-.06,0l-.23,0c-.15,0-.34.1-.51.15a11.14,11.14,0,0,0-1.12.43,16.43,16.43,0,0,0-2.26,1.2,26.1,26.1,0,0,0-4.24,3.35,42.51,42.51,0,0,0-6.89,9,29.24,29.24,0,0,0-3.85,10.43,86.64,86.64,0,0,0-1,11.84l-.6,24.66q-.19,6.19-.5,12.38c-.1,2.07-.19,4.1-.34,6.2l-.25,3.17-.39,3.15a78.18,78.18,0,0,1-2.74,12.38A71.74,71.74,0,0,1,356.51,423a91,91,0,0,1-20.58,14A118.3,118.3,0,0,1,312.74,445.66Z" transform="translate(-144.2 -207.92)"/><path class="cls-1" d="M313.48,343.28c-5.73,4.2,15.22,63.08-20.77,113C243.55,524.46,192,518.43,172,513.36c-20.27-5.14-21.12-12.28-23.33-21-2.58-10.14,20.18-54.56,84.08-49.06,68,5.85,83.67,1,83.67,1" transform="translate(-144.2 -207.92)"/><path class="cls-3" d="M313.48,343.28a2.73,2.73,0,0,0-.74,1.68,11.6,11.6,0,0,0-.12,1.87c0,1.25.11,2.51.23,3.76.25,2.51.59,5,.92,7.52.65,5,1.25,10.05,1.67,15.12a164.89,164.89,0,0,1-.14,30.62,123.68,123.68,0,0,1-7,30.09A110.56,110.56,0,0,1,293.4,461.2a184.71,184.71,0,0,1-19.92,23.6,143.91,143.91,0,0,1-24.27,19.56,118.31,118.31,0,0,1-13.88,7.41,105.46,105.46,0,0,1-14.88,5.34,94.32,94.32,0,0,1-47.16,1.12,65.5,65.5,0,0,1-15.38-5.31,26.12,26.12,0,0,1-7.24-5.44,20.25,20.25,0,0,1-2.79-3.92,26,26,0,0,1-1.79-4.21c-.45-1.39-.79-2.71-1.1-4l-.45-1.83-.08-.34-.08-.41c-.06-.28-.08-.52-.11-.77a11.92,11.92,0,0,1-.07-1.42,19.13,19.13,0,0,1,.66-4.76,34.42,34.42,0,0,1,1.35-4.13,54.63,54.63,0,0,1,8.48-14,69.93,69.93,0,0,1,11.54-11.15,78.3,78.3,0,0,1,28.5-13.66,102.18,102.18,0,0,1,31-2.9c2.58.12,5.17.37,7.72.64l7.52.78c5,.56,10,.95,15.06,1.45,10,.91,20.1,1.63,30.18,2.08q7.56.36,15.12.32c2.52,0,5,0,7.56-.19,1.26-.06,2.52-.15,3.77-.27a31.32,31.32,0,0,0,3.75-.52,48.17,48.17,0,0,1-7.45,1.49c-2.52.35-5,.62-7.57.84q-7.59.61-15.2.81c-10.14.29-20.29.1-30.43-.18-5.06-.21-10.13-.39-15.19-.7l-7.59-.43c-2.5-.14-5-.26-7.42-.26a100,100,0,0,0-29,3.78A76.37,76.37,0,0,0,183.15,455a71,71,0,0,0-12.06,7.75,62.43,62.43,0,0,0-10,10.08,46.53,46.53,0,0,0-6.93,12,24.69,24.69,0,0,0-.95,3.09,12.51,12.51,0,0,0-.37,2.74c0,.17,0,.35,0,.47s0,.14,0,.16v.05s0,0,0,.13l.47,1.85c.31,1.19.61,2.32,1,3.34a13.09,13.09,0,0,0,2.79,5,17.61,17.61,0,0,0,4.87,3.55,57.77,57.77,0,0,0,13.27,4.41,88.13,88.13,0,0,0,14.27,2,89.38,89.38,0,0,0,28.61-2.91,96.91,96.91,0,0,0,13.68-4.8,130,130,0,0,0,12.93-6.72A135.18,135.18,0,0,0,268,479.16,201.55,201.55,0,0,0,287.79,457C300.15,441.64,307.88,423,311,403.26a170.39,170.39,0,0,0,2-29.91c0-5-.28-10.07-.54-15.12-.12-2.53-.24-5.06-.28-7.6,0-1.27,0-2.55.1-3.82a12.21,12.21,0,0,1,.31-1.89A2.76,2.76,0,0,1,313.48,343.28Z" transform="translate(-144.2 -207.92)"/><path class="cls-1" d="M309,336.67c-12.57-42.68-127.76-24.05-133.33,7.08-2.87,4.92,5.19,29.76,36.48,55.23,47.13,38.36,114.27,18.42,127,9" transform="translate(-144.2 -207.92)"/><path class="cls-3" d="M309,336.67a27.6,27.6,0,0,0-12.1-13.95,54.16,54.16,0,0,0-17.46-6.26c-12.26-2.36-24.95-2.1-37.37-.72A171.31,171.31,0,0,0,223.61,319a131.66,131.66,0,0,0-17.8,5.42,80.1,80.1,0,0,0-16.11,8.24,34.32,34.32,0,0,0-6.32,5.57,13.59,13.59,0,0,0-3.3,6.32l-.54,1.47c.19-.34.12-.31.11-.14a4.73,4.73,0,0,0,0,.81,15.06,15.06,0,0,0,.33,2.37,35.59,35.59,0,0,0,1.66,5.32A66.59,66.59,0,0,0,187,364.92a116,116,0,0,0,15.06,19.13q4.23,4.45,8.86,8.57a106.86,106.86,0,0,0,9.52,7.67,92.08,92.08,0,0,0,10.35,6.37,95.2,95.2,0,0,0,11.11,5.08,104.54,104.54,0,0,0,11.7,3.69q6,1.47,12.11,2.39a134.14,134.14,0,0,0,24.8,1.26,150.15,150.15,0,0,0,24.86-3,119.44,119.44,0,0,0,12.17-3.15A52.62,52.62,0,0,0,339.15,408a32.28,32.28,0,0,1-5.35,3.44c-1.88,1-3.81,1.91-5.77,2.75a115.52,115.52,0,0,1-12,4.28,141.7,141.7,0,0,1-25.15,5,135.55,135.55,0,0,1-25.8.2,112.45,112.45,0,0,1-25.48-5.33A97.06,97.06,0,0,1,216,406.76a121.68,121.68,0,0,1-10.42-7.95c-3.31-2.79-6.53-5.71-9.61-8.78a118.82,118.82,0,0,1-16.52-20.4,75,75,0,0,1-6.18-12,41,41,0,0,1-2.12-6.76,23.16,23.16,0,0,1-.5-3.91,13.88,13.88,0,0,1,.11-2.35,8.51,8.51,0,0,1,1-3.15l-.54,1.46a22.5,22.5,0,0,1,5.36-10.55,40.56,40.56,0,0,1,8.11-7,80.06,80.06,0,0,1,18.18-8.83,144.28,144.28,0,0,1,38.55-7.65,133.71,133.71,0,0,1,19.61.07,100.54,100.54,0,0,1,19.37,3.33,68.76,68.76,0,0,1,9.28,3.4,43.39,43.39,0,0,1,8.52,5,31.6,31.6,0,0,1,6.89,7.06A24.88,24.88,0,0,1,309,336.67Z" transform="translate(-144.2 -207.92)"/><path class="cls-1" d="M318.64,340.51c23-66-122.81-161.8-132.38-116.56-15.38,72.73,56.91,138.17,106.38,132.21" transform="translate(-144.2 -207.92)"/><path class="cls-3" d="M318.64,340.51a49.38,49.38,0,0,0-.05-24.63,67.09,67.09,0,0,0-4-11.63A94.14,94.14,0,0,0,309,293.32c-2.11-3.53-4.45-6.92-6.9-10.23s-5-6.52-7.75-9.62-5.55-6.1-8.48-9-5.9-5.77-9-8.51a213.83,213.83,0,0,0-40.35-28.34,112.61,112.61,0,0,0-22.34-9.27,45.06,45.06,0,0,0-11.32-1.8c-3.65-.07-7.06.65-9.28,2.4a9,9,0,0,0-2.63,3.43,14,14,0,0,0-.77,2.29l-.6,2.94a95.2,95.2,0,0,0-1.46,12,96.5,96.5,0,0,0,1.64,24.21,106.72,106.72,0,0,0,7.46,23.28,122.58,122.58,0,0,0,12.29,21.35,130.56,130.56,0,0,0,16.28,18.65,122.25,122.25,0,0,0,19.59,15.27A99.3,99.3,0,0,0,267.88,353a65.81,65.81,0,0,0,24.76,3.18,63.76,63.76,0,0,1-25.22-1.52,97.45,97.45,0,0,1-23.66-9.54,128.35,128.35,0,0,1-38.58-33.43,123.54,123.54,0,0,1-13.67-21.89,113.38,113.38,0,0,1-8.6-24.51,99.59,99.59,0,0,1-1.08-39l.61-3.26a21.66,21.66,0,0,1,1.12-3.72,17,17,0,0,1,4.79-6.64,19.07,19.07,0,0,1,7.13-3.68,29,29,0,0,1,7.33-1,53.92,53.92,0,0,1,13.6,1.88,91.35,91.35,0,0,1,12.52,4.28q6,2.52,11.78,5.59A193.33,193.33,0,0,1,282.27,250c3.11,3,6.14,6,9.05,9.17s5.67,6.46,8.32,9.85,5.18,6.88,7.54,10.48a116.22,116.22,0,0,1,6.43,11.22,90.52,90.52,0,0,1,5,11.93,72.09,72.09,0,0,1,3,12.61C322.86,323.84,322.06,332.76,318.64,340.51Z" transform="translate(-144.2 -207.92)"/><rect class="cls-3" x="157.11" y="246.86" width="43.5" height="325.51"/><path class="cls-3" d="M301.3,780.29c7.4-.15,14.75-.36,22-.59l21.51-.59-1.18,1.18q-.94-40.68-1.55-81.38l-.32-20.34-.24-20.34-.46-40.69-.57-81.38-.18-81.37,4.5,4.49-43.51-.09,4.41-4.4-.12,40.29-.32,40.33-.4,40.38-.55,40.5L303.67,657,303,697.8Zm0,0L299.66,700l-.72-40.52-.65-40.72-.56-40.88-.39-41-.33-41-.11-41.08v-4.4h4.41l43.51-.09h4.5v4.51l-.18,81.37-.57,81.38-.46,40.69-.24,20.34-.32,20.34q-.6,40.7-1.55,81.38l0,1.21-1.14,0-22-.59C315.56,780.65,308.4,780.44,301.3,780.29Z" transform="translate(-144.2 -207.92)"/><polyline class="cls-1" points="157.11 572.37 178.86 621.84 200.61 572.37"/><path class="cls-3" d="M301.58,780.17c2.85,3.67,5.27,7.52,7.73,11.36l3.48,5.85c1.17,1.94,2.2,4,3.31,5.92,2.22,4,4.22,8,6.22,12,1,2,1.93,4.07,2.9,6.1l2.78,6.16h-9.89l2.78-6.16c1-2,1.91-4.08,2.91-6.1,2-4,4-8.08,6.23-12,1.1-2,2.13-4,3.3-5.93l3.48-5.84c2.45-3.85,4.88-7.7,7.72-11.37l.55.24-5.3,12.43-5.39,12.39L323.6,830l-.55,1.26-.54-1.26-10.79-24.77-5.39-12.39L301,780.41Z" transform="translate(-144.2 -207.92)"/><ellipse class="cls-4" cx="178.86" cy="619.45" rx="5.06" ry="5.24"/><line class="cls-5" x1="191.1" y1="245.29" x2="191.1" y2="571.91"/><line class="cls-6" x1="168.8" y1="246.86" x2="164.74" y2="572.37"/></svg>