<svg xmlns="http://www.w3.org/2000/svg" viewBox="0 0 256.04 353.47"><g id="Calque_2" data-name="Calque 2"><g id="Calque_1-2" data-name="Calque 1"><path d="M237.53,106.81c-.08,17.45-5.36,32.47-11.8,47.13-13.7,31.23-32.18,59.67-51.95,87.29-10.74,15-22.13,29.57-33.44,44.17-7.11,9.18-17.5,9.1-24.71.08C87.52,250.35,61.1,214,40.1,174.15a311.26,311.26,0,0,1-16-36.18c-9.77-26.17-6.47-51.82,5.51-76.46C49.26,21.09,91.13-2.81,136,.26c52.43,3.59,95.44,45.23,100.79,97.6C237.14,101.21,237.35,104.57,237.53,106.81ZM127.8,154.54c24.34.08,45.17-19.53,44.94-43.37-.26-24.93-20.65-43.65-44.6-43.79-24.23-.14-44.79,19.74-45.06,43.44C82.82,134.23,103.51,154.47,127.8,154.54Z"/><path d="M211.2,240.22c16.31,7.1,31.26,15.66,40.15,31.68,7.93,14.29,5.65,30.4-5.77,43.73-9.5,11.08-21.81,18.11-35.12,23.54-20.32,8.29-41.61,12.15-63.42,13.61-26.6,1.78-52.94.25-78.85-6.25-17.94-4.5-35-11-49.57-22.87-9-7.34-16-16.16-18-28C-1.76,282.15,3.25,271,12.32,261.29s20.1-15.85,32.38-21c.82,1.13,1.59,2.21,2.39,3.27,15.3,20.49,30.21,41.29,46,61.38,18.13,23,51.66,23,69.82,0,15.59-19.79,30.27-40.3,45.34-60.49C209.23,243.15,210.1,241.8,211.2,240.22Z"/></g></g></svg>