<svg id="Calque_1" data-name="Calque 1" xmlns="http://www.w3.org/2000/svg" viewBox="0 0 990.41 280.89"><defs><style>.cls-1{font-size:60px;font-family:NunitoSans-ExtraBold, Nunito Sans;font-weight:800;}.cls-1,.cls-3{fill:#1d1d1b;}.cls-2{fill:#e30613;}.cls-4{fill:none;}</style></defs><text class="cls-1" transform="translate(0 264.4) scale(0.88 1)">Réseau des Alumni de Simplon Sénégal </text><path class="cls-2" d="M286.91,255.73H250.68l-31.31-61.88q-4.4-8.79-10.87-12.37t-16.3-3.58H166.84v77.83H134V61.85h80.73q31.06,0,47.23,14.71t16.17,42.49q0,22.28-11.77,36.71T233.09,174.6q14.49,4.13,23.29,21.73ZM237.74,143.12q8.81-7.58,8.8-23.24,0-15.94-8.8-23.24t-27.68-7.29H166.58v61.33h43.48Q228.95,150.68,237.74,143.12Z" transform="translate(-133.97 -59.38)"/><path class="cls-2" d="M313.82,61.85H436V89.9H346.43v53.35h84.36V171H346.43v56.65H436v28H313.82Z" transform="translate(-133.97 -59.38)"/><path class="cls-2" d="M486.16,252.15q-18.37-6-31.05-17.05l11.13-25.85a89.64,89.64,0,0,0,27.82,15.68,98.21,98.21,0,0,0,31.7,4.95q18.88,0,29.11-7t10.22-19.67a18.52,18.52,0,0,0-9.44-16.77q-9.45-5.77-31.45-11-22.77-5.22-37-12.1t-21.48-17.6q-7.25-10.72-7.24-27.23A54.63,54.63,0,0,1,467.27,88q8.81-13.47,24.85-21t37-7.56a107.86,107.86,0,0,1,36.49,6.18q17.32,6.19,28.46,16.92L583,108.33Q558.62,87.71,529.12,87.7q-17.6,0-27.82,7.56t-10.22,21q0,11.28,9.06,17.33t30.79,11.27q23,5.5,37.4,12.24t22,17.19q7.63,10.46,7.63,26.4,0,17.33-8.66,30.39t-25.1,20.07q-16.44,7-38.69,7A125.11,125.11,0,0,1,486.16,252.15Z" transform="translate(-133.97 -59.38)"/><path class="cls-3" d="M736.92,182.85H670.15l-29.24,72.88H607.27L689.82,61.85H717l82.55,193.88H766.42Zm0,0-33.39-82.5-33.38,82.5Z" transform="translate(-133.97 -59.38)"/><path class="cls-2" d="M839.39,252.15q-18.37-6-31-17.05l11.12-25.85a89.64,89.64,0,0,0,27.82,15.68,98.3,98.3,0,0,0,31.7,4.95q18.88,0,29.11-7t10.23-19.67a18.51,18.51,0,0,0-9.45-16.77q-9.45-5.77-31.44-11-22.77-5.22-37-12.1T819,145.73Q811.69,135,811.7,118.5A54.55,54.55,0,0,1,820.5,88q8.79-13.47,24.84-21t37-7.56a107.84,107.84,0,0,1,36.48,6.18q17.34,6.19,28.47,16.92l-11.13,25.85Q911.84,87.71,882.35,87.7q-17.61,0-27.82,7.56t-10.22,21q0,11.28,9.05,17.33t30.8,11.27q23,5.5,37.39,12.24t22,17.19q7.62,10.46,7.63,26.4,0,17.33-8.67,30.39t-25.1,20.07q-16.44,7-38.69,7A125.09,125.09,0,0,1,839.39,252.15Z" transform="translate(-133.97 -59.38)"/><path class="cls-2" d="M1004.48,252.15q-18.37-6-31.05-17.05l11.13-25.85a89.64,89.64,0,0,0,27.82,15.68,98.21,98.21,0,0,0,31.7,4.95q18.89,0,29.11-7t10.22-19.67a18.52,18.52,0,0,0-9.44-16.77q-9.45-5.77-31.45-11-22.77-5.22-37-12.1T984,145.73Q976.8,135,976.8,118.5A54.63,54.63,0,0,1,985.59,88q8.8-13.47,24.85-21t37-7.56a107.86,107.86,0,0,1,36.49,6.18q17.33,6.19,28.46,16.92l-11.12,25.85q-24.33-20.62-53.83-20.63-17.6,0-27.82,7.56t-10.22,21q0,11.28,9.06,17.33t30.79,11.27q23,5.5,37.4,12.24t22,17.19q7.63,10.46,7.63,26.4,0,17.33-8.66,30.39t-25.1,20.07q-16.44,7-38.69,7A125.11,125.11,0,0,1,1004.48,252.15Z" transform="translate(-133.97 -59.38)"/><path class="cls-3" d="M228.5,118.17a24.82,24.82,0,0,1-.14,2.59,23.78,23.78,0,0,1-1.33,5.7,24.14,24.14,0,0,1-3.09,5.83c-.29.42-.61.83-.93,1.23l-.17.21a25.37,25.37,0,0,1-3.86,3.75q-.42.35-.87.66c-.35.26-.72.51-1.1.76a26.3,26.3,0,0,1-3,1.69,27.29,27.29,0,0,1-3,1.19,26.68,26.68,0,0,1-3,.81c-.93.19-1.87.34-2.84.44v-5.92a20.48,20.48,0,0,0,4.08-.92,18.43,18.43,0,0,0,1.74-.68,19,19,0,0,0,3.65-2.08,15.79,15.79,0,0,0,1.45-1.14q.46-.4.9-.84a19,19,0,0,0,3.7-5,18.59,18.59,0,0,0,2-8.53,17.51,17.51,0,0,0-.2-2.72,17.93,17.93,0,0,0-.94-3.7,16.72,16.72,0,0,0-.76-1.8,19,19,0,0,0-2.05-3.3l1.89-1.78,2.13-2h0a23.47,23.47,0,0,1,1.52,2,23.9,23.9,0,0,1,1.61,2.76,23.25,23.25,0,0,1,1,2.29,23.56,23.56,0,0,1,1.36,5.5A24.13,24.13,0,0,1,228.5,118.17Z" transform="translate(-133.97 -59.38)"/><path class="cls-3" d="M205.19,93.32v16.39H199.4V98.83a21.07,21.07,0,0,0-5.74,1.78,20.83,20.83,0,0,0-3.51,2.14,21.16,21.16,0,0,0-1.89,1.64c-.13.12-.25.25-.37.38a20.18,20.18,0,0,0-1.7,2,19.49,19.49,0,0,0-1.78,2.94,18.81,18.81,0,0,0-.95,2.32,18,18,0,0,0-.75,3.18,17.51,17.51,0,0,0-.2,2.72c0,.25,0,.51,0,.77a17.83,17.83,0,0,0,1.06,5.48,17,17,0,0,0,1,2.28,20,20,0,0,0,1.71,2.75,20.48,20.48,0,0,0,1.61,1.88c.4.42.83.82,1.27,1.2s.77.64,1.17.94A20.32,20.32,0,0,0,199.4,137v6a26.6,26.6,0,0,1-5.74-1.29,24.47,24.47,0,0,1-2.84-1.16,27.85,27.85,0,0,1-2.93-1.64c-.37-.24-.75-.49-1.11-.76s-.62-.46-.92-.7a25.51,25.51,0,0,1-3.79-3.7v-.55l-.26.24c-.3-.37-.58-.75-.85-1.14a24.41,24.41,0,0,1-3.1-5.83,23.3,23.3,0,0,1-1.32-5.7c-.08-.64-.12-1.29-.14-2v-1.3c0-.78.08-1.54.17-2.3.08-.61.18-1.21.3-1.81a23,23,0,0,1,1.06-3.69c.26-.7.55-1.38.87-2a25.09,25.09,0,0,1,1.95-3.32c.37-.54.76-1.06,1.18-1.56l.14.13v-.3A25.3,25.3,0,0,1,186,98.83l.31-.24c.52-.4,1.07-.78,1.62-1.14a25.89,25.89,0,0,1,5.77-2.8,27.22,27.22,0,0,1,5.74-1.3,27.93,27.93,0,0,1,3-.16C203.37,93.19,204.29,93.23,205.19,93.32Z" transform="translate(-133.97 -59.38)"/><path class="cls-3" d="M216.94,118.36a12.76,12.76,0,0,1-.22,2.4,13.42,13.42,0,0,1-2,5,8,8,0,0,1-.49.7,14.08,14.08,0,0,1-3.22,3.13l-.26.18a14.51,14.51,0,0,1-5.56,2.26l-.31.05a14.91,14.91,0,0,1-2.42.2,15.25,15.25,0,0,1-2.64-.23l-.42-.08a14.46,14.46,0,0,1-4.66-1.84l-.56-.52-.11.1-.41-.29a13.89,13.89,0,0,1-3-3h.12l-.4-.38c-.11-.15-.21-.31-.31-.46a13.43,13.43,0,0,1-1.91-4.86c-.05-.27-.09-.53-.12-.81a13.86,13.86,0,0,1-.09-1.59,14.16,14.16,0,0,1,.14-2,9.49,9.49,0,0,1,.24-1.18,13.16,13.16,0,0,1,2-4.52l3.29,3.08.49.46.38.36c-.09.21-.18.41-.26.62a8,8,0,0,0-.52,2.87,7.94,7.94,0,0,0,.46,2.68,6.37,6.37,0,0,0,.29.72,8.56,8.56,0,0,0,4,4.06,9,9,0,0,0,6.69.5,8.78,8.78,0,0,0,1.11-.43,7.82,7.82,0,0,0,.81-.43h0a8.49,8.49,0,0,0,2.66-2.5,8.33,8.33,0,0,0,.59-1,9.35,9.35,0,0,0,.38-.92,6.52,6.52,0,0,0,.26-.89,8,8,0,0,0,.2-1.79,8.15,8.15,0,0,0-.52-2.87c-.11-.28-.23-.54-.36-.81l.68-.64,3.42-3.23a13.27,13.27,0,0,1,2.13,4.68c.07.3.14.6.18.9A12.81,12.81,0,0,1,216.94,118.36Z" transform="translate(-133.97 -59.38)"/><path class="cls-4" d="M194.74,130.13c-.23-.13-.45-.27-.67-.42l.11-.1Z" transform="translate(-133.97 -59.38)"/><text x="-133.97" y="-59.38"/><rect class="cls-2" x="536.3" y="145" width="22.15" height="22.15"/><rect class="cls-2" x="580.79" y="145" width="22.15" height="22.15"/></svg>