<svg id="Calque_1" data-name="Calque 1" xmlns="http://www.w3.org/2000/svg" viewBox="0 0 139.44 135.93"><defs><style>.cls-1{fill:#1d1d1b;}.cls-2{fill:#ec671b;}.cls-3,.cls-4{fill:#08672f;}.cls-4{font-size:40.08px;font-family:MicrosoftTaiLe-Bold, Microsoft Tai Le;font-weight:700;letter-spacing:-0.01em;}</style></defs><path class="cls-1" d="M132.8,141.73" transform="translate(-1.15 -3.5)"/><path class="cls-2" d="M64.24,81.89s17.11,8.09,6.69.47c-39.28-28.77-2.7-11.11-17-5.4-.12,0-.41.17-.28.18,4.41.22-48-4.09-52.46-68.72a.23.23,0,0,1,.14-.24C5,7,70-17.6,62.19,59.17h0c-.62,3.33-3.44-6.45-15.85-8.82-17.64-3.37-23-23.09-26.77-28C12.85,13.69,30,49.26,46.64,62.18c29.22,22.76,17.6,19.71,17.6,19.71" transform="translate(-1.15 -3.5)"/><path class="cls-3" d="M69.94,30.38C44.38,49,45.2,72.1,45.41,75.05c0,.12.13.16.19.07,8-11.88,16.1-21.07,23.89-27.48,0-.12-.86.35-.88.23h.77c.05,0,.09,0,.09-.12a.12.12,0,0,1,0-.1c.91-1.25,6.44-9,8.85-16.15v0c.44-2.06-.17,0,0,0-.19,1.1.4-1.2,0,0h0C77.59,35,76.4,40.34,74.56,44c-.06.12,0,.26.15.19C91.39,32.23,102,31,105.88,30.75c.14,0,.13,0,0,0-10.46,3.07-18.8,9-27.12,15,11.44-3.88,27.6-1.9,33.7,1.42,1.72.25-1.16-.41,0,0h0c-12.29-4.2-51.09,9.88-50.4,14.41,0,.12,1-.87,1-1l-1,1c0-.34,1.27-1.07,1-1-1,.27,3.27-3.38,0,0-.1.1-1.13,1.07-1,1,10.3-6.15,25-2.82,31.4-.26h0c1.52.34-2.55-1.28-1.69-.52,0,0,4,1.42,1.69.52h0c-8.73-3-23.65-1.91-32.46,2.91a14.92,14.92,0,0,0-6,5.32l0,0c-9.32,13,0,0-8.85,11.65h0L39.93,89c-5.79,7.11,1.62,7.1,1.62,7.1l-.93-.83c-1.15-1-.23-6.73,3.34-5.39,3.27,1.23,1.25,4.43.82,6.23a8.67,8.67,0,0,0,1.92-1.17l9.75-16.48h0S76.59,121,105.07,72.55c25.68-43.72,34.07-50.69,35.47-51.64a.11.11,0,0,0,0-.19C137,19.92,96.07,11.35,69.94,30.38Z" transform="translate(-1.15 -3.5)"/><text class="cls-4" transform="translate(4.25 122.14) scale(0.84 1)">Sen Agri</text></svg>