<svg id="Calque_1" data-name="Calque 1" xmlns="http://www.w3.org/2000/svg" viewBox="0 0 141.73 141.73"><defs><style>.cls-1{fill:#336733;}.cls-2{fill:#063;}.cls-3{fill:#cd3333;}.cls-4,.cls-6{fill:#be1622;}.cls-5{fill:#27348b;}.cls-6{font-size:17px;font-family:HelveticaNeue-HeavyItalic, Helvetica Neue;font-weight:800;font-style:italic;}</style></defs><path class="cls-1" d="M52.17,41.2a6,6,0,0,1-.91,3.24,4.1,4.1,0,0,1-3,2,4.21,4.21,0,0,1-3.56-1.52,5.74,5.74,0,0,1,0-7.35A4.21,4.21,0,0,1,48.29,36a4.08,4.08,0,0,1,3,2A6,6,0,0,1,52.17,41.2Zm0,0A4.65,4.65,0,0,0,51,38.13a2.93,2.93,0,0,0-4.93.43,5.05,5.05,0,0,0-.71,2.64,5.16,5.16,0,0,0,.7,2.64,2.94,2.94,0,0,0,4.94.43A4.67,4.67,0,0,0,52.17,41.2Z"/><path class="cls-2" d="M37.19,43.91A7.54,7.54,0,0,1,42,45a10.19,10.19,0,0,1,3.52,3.71,18.42,18.42,0,0,1,2.07,9.85,27.42,27.42,0,0,1-2.85,9.6A20.37,20.37,0,0,1,42,72.32,8.89,8.89,0,0,1,40.14,74a3.65,3.65,0,0,1-2.39.64,3.79,3.79,0,0,0,2.06-1.08,8.86,8.86,0,0,0,1.45-1.82,24.07,24.07,0,0,0,2.08-4.23A40.17,40.17,0,0,0,44.8,63a22.39,22.39,0,0,0,.82-4.54,19.77,19.77,0,0,0-1.45-9,10.28,10.28,0,0,0-2.7-3.63A8.36,8.36,0,0,0,37.19,43.91Z"/><path class="cls-3" d="M73.43,27.08a12,12,0,0,1-1.13,5.25,7,7,0,0,1-1.66,2.22A4.59,4.59,0,0,1,68,35.71a4.79,4.79,0,0,1-2.91-.84A7.24,7.24,0,0,1,63,32.68a11.12,11.12,0,0,1-1.5-5.6,11,11,0,0,1,1.5-5.6,6.91,6.91,0,0,1,2.05-2.19A4.73,4.73,0,0,1,68,18.44a4.65,4.65,0,0,1,2.67,1.16,6.92,6.92,0,0,1,1.66,2.23A12,12,0,0,1,73.43,27.08Zm0,0A10,10,0,0,0,72.05,22a6.13,6.13,0,0,0-1.77-1.88A3.77,3.77,0,0,0,68,19.45a4.58,4.58,0,0,0-3.45,2.86,11.08,11.08,0,0,0-1,4.77,11.25,11.25,0,0,0,1,4.77A4.65,4.65,0,0,0,68,34.72a3.85,3.85,0,0,0,2.31-.64,6.28,6.28,0,0,0,1.78-1.88A10.15,10.15,0,0,0,73.43,27.08Z"/><path class="cls-4" d="M50.1,32a10.29,10.29,0,0,1,7.57,2.2A19.67,19.67,0,0,1,63,40.36a28.24,28.24,0,0,1,2.93,7.57A35.87,35.87,0,0,1,66.79,56,63.33,63.33,0,0,1,64.7,71.84a33,33,0,0,1-3,7.45A14.16,14.16,0,0,1,56.16,85a15.32,15.32,0,0,0,4.65-6.14,36.51,36.51,0,0,0,2.37-7.38,68.83,68.83,0,0,0,1.19-7.7c.27-2.59.42-5.19.43-7.78A32.83,32.83,0,0,0,61.61,41.1,20.13,20.13,0,0,0,57.06,35,10.67,10.67,0,0,0,50.1,32Z"/><path class="cls-2" d="M57.71,75.2a7.36,7.36,0,0,1-5.37-1.41A10.17,10.17,0,0,1,49.1,69,21.53,21.53,0,0,1,48,63.47a13.14,13.14,0,0,1-.08-1.4,13.41,13.41,0,0,1,0-1.42c0-.48,0-1,.07-1.44l.19-1.43a24.89,24.89,0,0,1,1.69-5.44,25.62,25.62,0,0,1,2.94-4.84,18.24,18.24,0,0,1,4.09-3.9,8.45,8.45,0,0,1,5.28-1.67,9.23,9.23,0,0,0-4.68,2.45,20.68,20.68,0,0,0-3.43,4,26.27,26.27,0,0,0-3.92,9.71,22.16,22.16,0,0,0-.26,5.23,23.8,23.8,0,0,0,.72,5.22,11.46,11.46,0,0,0,1.56,3.52,7.63,7.63,0,0,0,.83,1A7.81,7.81,0,0,0,57.71,75.2Z"/><path class="cls-4" d="M84,82.79a41.2,41.2,0,0,1-7.52-3.61,18.73,18.73,0,0,1-5.92-6.09A21.7,21.7,0,0,1,67.79,65a38.73,38.73,0,0,1-.17-8.47,46,46,0,0,1,4.53-16.17,31.84,31.84,0,0,1,4.64-7A16.5,16.5,0,0,1,80,30.56a9.52,9.52,0,0,1,1.88-1,6.41,6.41,0,0,1,2.07-.34A7.44,7.44,0,0,0,80.3,31a15.77,15.77,0,0,0-2.75,3,35.54,35.54,0,0,0-4,7.06A52.27,52.27,0,0,0,71,48.7a49.42,49.42,0,0,0-1.36,8c-.46,5.36-.19,10.92,2.28,15.64A19,19,0,0,0,77,78.39,51.06,51.06,0,0,0,84,82.79Z"/><path class="cls-5" d="M88.43,41.91a5.49,5.49,0,0,1-1,3.21,4.29,4.29,0,0,1-3,1.85,4.35,4.35,0,0,1-3.59-1.39,5.4,5.4,0,0,1,0-7.34,4.2,4.2,0,0,1,6.64.46A5.58,5.58,0,0,1,88.43,41.91Zm0,0a4.44,4.44,0,0,0-1.21-3,3.2,3.2,0,0,0-5.1.47,4.73,4.73,0,0,0,0,5.14,3.21,3.21,0,0,0,5.1.46A4.4,4.4,0,0,0,88.43,41.91Z"/><path class="cls-5" d="M73.31,44.31a7.34,7.34,0,0,1,4.71,1,10.83,10.83,0,0,1,3.51,3.52,18.26,18.26,0,0,1,2.56,9.45,18.13,18.13,0,0,1-3.22,9.3,17.28,17.28,0,0,1-7,6.53,23.92,23.92,0,0,0,5.64-7.32,28.48,28.48,0,0,0,1.78-4.19,13.41,13.41,0,0,0,.8-4.29,19.86,19.86,0,0,0-1.92-8.71A9.14,9.14,0,0,0,73.31,44.31Z"/><path class="cls-5" d="M95.22,74.75a7.9,7.9,0,0,1-5.64-1.36,9,9,0,0,1-2.09-2.21,13.43,13.43,0,0,1-1.33-2.72,21.65,21.65,0,0,1-1.08-5.82,21.94,21.94,0,0,1,.41-5.93,27.27,27.27,0,0,1,4.92-10.62A20.15,20.15,0,0,1,94.57,42,9.49,9.49,0,0,1,100,40a10.3,10.3,0,0,0-4.83,2.7A22.88,22.88,0,0,0,91.66,47a31,31,0,0,0-4.22,10.15A21.44,21.44,0,0,0,87,62.55a23.35,23.35,0,0,0,.7,5.43,9.74,9.74,0,0,0,2.54,4.63A8.38,8.38,0,0,0,95.22,74.75Z"/><path class="cls-2" d="M110.51,90.15a20.12,20.12,0,0,1-10.3,1.47,43.66,43.66,0,0,1-10.13-2.76c-3.28-1.21-6.48-2.6-9.78-3.62a33.48,33.48,0,0,0-10.13-1.71,24.42,24.42,0,0,0-5.11.46,18,18,0,0,0-2.46.61c-.8.31-1.6.61-2.37,1-3.1,1.47-6,3.41-9.15,5a45.74,45.74,0,0,1-9.76,3.9,35.81,35.81,0,0,1-10.4,1.11,40.87,40.87,0,0,0,19.79-5.69c1.52-.85,3-1.73,4.52-2.61s3-1.77,4.61-2.53a25.48,25.48,0,0,1,2.45-1.06,20.12,20.12,0,0,1,2.59-.67,26.14,26.14,0,0,1,5.29-.52,34.27,34.27,0,0,1,10.4,1.85c3.35,1.08,6.57,2.45,9.79,3.76a43,43,0,0,0,9.92,3A20.51,20.51,0,0,0,110.51,90.15Z"/><text class="cls-6" transform="translate(48.49 103.03)">JENA</text></svg>